<svg width="500" height="500" viewBox="0 0 500 500" fill="none" xmlns="http://www.w3.org/2000/svg">
<g clip-path="url(#clip0_2507_510)">
<path d="M75.534 348.968C83.6467 340.567 76.6028 320.603 59.8009 304.378C42.9991 288.153 22.8019 281.81 14.6893 290.211C6.57661 298.612 13.6206 318.575 30.4224 334.8C47.2242 351.026 67.4214 357.369 75.534 348.968Z" fill="#B4BEFE"/>
<path d="M424.689 348.968C432.802 357.369 452.999 351.026 469.801 334.801C486.603 318.576 493.647 298.612 485.534 290.211C477.421 281.81 457.224 288.153 440.422 304.379C423.621 320.604 416.577 340.567 424.689 348.968Z" fill="#B4BEFE"/>
<path d="M250 63.25C361.772 63.25 443.335 144.813 443.335 256.585C443.335 344.19 443.335 407.628 443.335 437.837C443.335 455.962 432.762 465.025 420.679 460.494C407.085 455.962 398.022 437.837 384.428 437.837C370.834 437.837 361.772 457.473 348.178 468.046C334.584 478.619 320.99 468.046 307.396 458.983C293.802 449.921 286.25 458.983 250 458.983C213.749 458.983 206.197 449.921 192.603 458.983C179.01 468.046 165.416 478.619 151.822 468.046C138.228 457.473 129.165 437.837 115.571 437.837C101.978 437.837 92.9149 455.962 79.321 460.494C67.2376 465.025 56.6646 455.962 56.6646 437.837C56.6646 407.628 56.6646 344.19 56.6646 256.585C56.6646 144.813 138.228 63.25 250 63.25Z" fill="#C0CAF5"/>
<path opacity="0.18" d="M250 455.962C330.082 455.962 395.001 380.222 395.001 286.793C395.001 193.364 330.082 117.625 250 117.625C169.918 117.625 104.999 193.364 104.999 286.793C104.999 380.222 169.918 455.962 250 455.962Z" fill="white"/>
<path d="M183 318C208.405 318 229 297.405 229 272C229 246.595 208.405 226 183 226C157.595 226 137 246.595 137 272C137 297.405 157.595 318 183 318Z" fill="#1A1B26"/>
<path d="M182.562 313.94C205.919 313.94 224.854 295.005 224.854 271.648C224.854 248.29 205.919 229.355 182.562 229.355C159.205 229.355 140.27 248.29 140.27 271.648C140.27 295.005 159.205 313.94 182.562 313.94Z" fill="white"/>
<path d="M182.562 301.857C195.909 301.857 206.729 291.037 206.729 277.69C206.729 264.343 195.909 253.523 182.562 253.523C169.215 253.523 158.395 264.343 158.395 277.69C158.395 291.037 169.215 301.857 182.562 301.857Z" fill="#1A1B26"/>
<path d="M173.499 276.179C179.339 276.179 184.072 271.446 184.072 265.606C184.072 259.767 179.339 255.033 173.499 255.033C167.66 255.033 162.926 259.767 162.926 265.606C162.926 271.446 167.66 276.179 173.499 276.179Z" fill="white"/>
<path d="M178.031 267.117C180.533 267.117 182.562 265.089 182.562 262.586C182.562 260.083 180.533 258.055 178.031 258.055C175.528 258.055 173.499 260.083 173.499 262.586C173.499 265.089 175.528 267.117 178.031 267.117Z" fill="white"/>
<path d="M320 317C345.405 317 366 296.405 366 271C366 245.595 345.405 225 320 225C294.595 225 274 245.595 274 271C274 296.405 294.595 317 320 317Z" fill="#1A1B26"/>
<path d="M319.562 312.94C342.919 312.94 361.854 294.005 361.854 270.648C361.854 247.29 342.919 228.355 319.562 228.355C296.205 228.355 277.27 247.29 277.27 270.648C277.27 294.005 296.205 312.94 319.562 312.94Z" fill="white"/>
<path d="M319.562 300.857C332.909 300.857 343.729 290.037 343.729 276.69C343.729 263.343 332.909 252.523 319.562 252.523C306.215 252.523 295.395 263.343 295.395 276.69C295.395 290.037 306.215 300.857 319.562 300.857Z" fill="#1A1B26"/>
<path d="M310.499 275.179C316.339 275.179 321.072 270.446 321.072 264.606C321.072 258.767 316.339 254.033 310.499 254.033C304.66 254.033 299.926 258.767 299.926 264.606C299.926 270.446 304.66 275.179 310.499 275.179Z" fill="white"/>
<path d="M315.031 266.117C317.533 266.117 319.562 264.089 319.562 261.586C319.562 259.083 317.533 257.055 315.031 257.055C312.528 257.055 310.499 259.083 310.499 261.586C310.499 264.089 312.528 266.117 315.031 266.117Z" fill="white"/>
<path d="M233.014 338.549C232.922 335.641 233.276 333.179 234.076 331.163C234.876 329.147 236.038 327.616 237.562 326.57C239.1 325.523 240.909 325 242.986 325C244.432 325 245.817 325.3 247.141 325.9C248.464 326.5 249.964 327.539 251.642 329.016C252.534 329.801 253.288 330.401 253.904 330.817C254.519 331.217 255.227 331.417 256.027 331.417C257.12 331.417 258.02 330.994 258.728 330.147C259.436 329.286 259.767 327.924 259.721 326.062H267.246C267.353 328.986 266.999 331.455 266.184 333.471C265.368 335.487 264.191 337.018 262.652 338.065C261.113 339.111 259.321 339.634 257.274 339.634C255.75 339.634 254.319 339.319 252.981 338.688C251.657 338.042 250.188 337.011 248.572 335.595C247.618 334.748 246.856 334.141 246.287 333.771C245.717 333.387 245.04 333.194 244.255 333.194C243.163 333.194 242.263 333.61 241.555 334.441C240.847 335.256 240.516 336.626 240.562 338.549H233.014Z" fill="#1A1B26"/>
</g>
<defs>
<clipPath id="clip0_2507_510">
<rect width="500" height="500" fill="white"/>
</clipPath>
</defs>
</svg>
